<?xml version="1.0" standalone="no"?><!DOCTYPE svg PUBLIC "-//W3C//DTD SVG 1.1//EN" "http://www.w3.org/Graphics/SVG/1.1/DTD/svg11.dtd"><svg t="1629355808272" class="icon" viewBox="0 0 1616 1024" version="1.1" xmlns="http://www.w3.org/2000/svg" p-id="1963" xmlns:xlink="http://www.w3.org/1999/xlink" width="631.25" height="400"><defs><style type="text/css"></style></defs><path d="M1347.368421 1009.717895h-356.405895l86.231579-121.96379 260.096-79.494737a112.801684 112.801684 0 0 0 78.794106-107.789473V311.080421c0-49.152-31.636211-92.968421-78.147369-107.789474L1077.894737 123.796211 991.663158 1.886316H1347.368421c148.857263 0 269.473684 120.562526 269.473684 269.473684v469.530947a269.258105 269.258105 0 0 1-269.473684 268.826948zM538.947368 441.775158h538.947369v121.263158H538.947368v-121.263158zM279.605895 202.644211a111.346526 111.346526 0 0 0-78.147369 107.789473v390.036211c0 49.205895 31.636211 92.968421 78.147369 107.789473l259.98821 79.494737 86.231579 121.96379H269.473684c-148.857263 0-269.473684-120.616421-269.473684-269.473684V270.659368c0-148.857263 120.562526-269.473684 269.473684-269.473684h356.405895l-86.231579 121.96379L279.552 202.644211z" fill="#FF6A00" p-id="1964"></path></svg>