<svg id="layer_1" data-name="Layer 1" xmlns="http://www.w3.org/2000/svg" viewBox="0 0 16 16"><defs><style>.cls-1{fill:#ea4335;}.cls-2{fill:#4285f4;}.cls-3{fill:#34a853;}.cls-4{fill:#fbbc04;}</style></defs><path class="cls-1" d="M9.91,5.48h.45l1.22-1.22.06-.51A5.46,5.46,0,0,0,2.72,6.42c.12-.1.41,0,.41,0L5.56,6s.13-.2.19-.19A3,3,0,0,1,9.9,5.48Z"/><path class="cls-2" d="M13.29,6.42a5.51,5.51,0,0,0-1.66-2.67L9.91,5.47a3,3,0,0,1,1.14,2.37v.31a1.53,1.53,0,0,1,.09,3H8l-.31.3v1.83l.31.3h3a4,4,0,0,0,2.25-7.21Z"/><path class="cls-3" d="M5,13.63H8V11.2H5a1.49,1.49,0,0,1-.62-.15l-.44.14L2.67,12.41l-.11.42A4,4,0,0,0,5,13.63Z"/><path class="cls-4" d="M5,5.72a4,4,0,0,0-2.38,7.11l1.76-1.77A1.52,1.52,0,1,1,5.56,8.28a1.56,1.56,0,0,1,.78.78L8.11,7.28A4,4,0,0,0,5,5.72Z"/></svg>