<?xml version="1.0" standalone="no"?><!DOCTYPE svg PUBLIC "-//W3C//DTD SVG 1.1//EN" "http://www.w3.org/Graphics/SVG/1.1/DTD/svg11.dtd"><svg t="1629355869887" class="icon" viewBox="0 0 1365 1024" version="1.1" xmlns="http://www.w3.org/2000/svg" p-id="4726" xmlns:xlink="http://www.w3.org/1999/xlink" width="533.203125" height="400"><defs><style type="text/css"></style></defs><path d="M1183.744 814.819556c-21.731556 22.186667-65.194667 55.296-141.198222 55.296h-466.944c141.198222-138.183111 260.608-254.236444 271.473778-265.272889 10.865778-11.036444 38.001778-38.684444 65.194666-60.814223 54.272-49.720889 97.735111-55.239111 135.736889-55.239111 54.272 0 97.735111 22.072889 135.736889 55.239111 76.003556 71.850667 76.003556 198.997333 0 270.791112zM1276.017778 455.68a300.942222 300.942222 0 0 0-222.606222-99.498667c-76.003556 0-141.141333 27.648-200.874667 71.850667-21.731556 22.129778-54.328889 44.202667-81.464889 77.368889-21.731556 22.129778-488.675556 486.4-488.675556 486.4 27.136 5.461333 59.733333 5.461333 86.869334 5.461333h591.872c43.406222 0 76.003556 0 108.544-5.518222a330.808889 330.808889 0 0 0 200.931555-88.405333c124.871111-121.571556 124.871111-326.087111 5.404445-447.658667z" fill="#00A3FF" p-id="4727"></path><path d="M504.376889 423.025778C444.302222 378.424889 384.227556 356.124444 313.230222 356.124444a302.193778 302.193778 0 0 0-223.800889 100.352 329.614222 329.614222 0 0 0 5.461334 457.102223c54.613333 50.176 109.226667 78.051556 174.705777 83.626666l125.553778-122.595555H324.266667c-70.997333-5.632-114.688-27.875556-141.994667-55.751111a203.377778 203.377778 0 0 1-5.461333-278.755556c38.229333-39.025778 81.92-55.751111 136.533333-55.751111 32.768 0 81.92 5.575111 131.015111 55.751111 21.845333 22.300444 81.92 66.901333 103.765333 89.201778h5.461334l81.92-83.626667v-5.575111c-38.286222-39.025778-98.304-89.201778-131.072-117.077333" fill="#00C8DC" p-id="4728"></path><path d="M1082.595556 279.438222C1021.724444 115.029333 861.354667 0 678.968889 0 463.416889 0 292.010667 158.890667 258.844444 356.124444c16.611556 0 33.166222-5.461333 55.296-5.461333s49.777778 5.461333 71.850667 5.461333c27.648-136.931556 149.276444-235.576889 292.977778-235.576888 121.628444 0 226.702222 71.224889 276.48 175.331555 0 0 5.461333 5.461333 5.461333 0 38.684444-5.461333 82.944-16.440889 121.628445-16.440889 0 5.461333 0 5.461333 0 0" fill="#006EFF" p-id="4729"></path></svg>